<?xml version="1.0" encoding="UTF-8" standalone="no"?>
<!-- Created with Inkscape (http://www.inkscape.org/) -->

<svg
   version="1.1"
   id="svg1"
   width="327.67999"
   height="327.67999"
   viewBox="0 0 327.67999 327.67999"
   xmlns="http://www.w3.org/2000/svg"
   xmlns:svg="http://www.w3.org/2000/svg">
  <defs
     id="defs1">
    <linearGradient
       id="swatch4">
      <stop
         style="stop-color:#000000;stop-opacity:1;"
         offset="0"
         id="stop4" />
    </linearGradient>
  </defs>
  <g
     id="g1">
    <path
       d="m 190.88086,157.84961 c -1.29175,0.14067 -0.67539,1.44992 2.52539,5.35742 2.45488,2.99691 3.31739,3.84413 3.83984,3.76953 0.4524,-0.0646 0.66657,-0.32032 0.65235,-0.77734 -0.0117,-0.37438 -1.45087,-2.42088 -3.19922,-4.54883 -2.32338,-2.82782 -3.35059,-3.85171 -3.81836,-3.80078 z"
       style="display:inline"
       id="path19" />
    <path
       d="m 193.14648,154.78516 c -0.1643,-0.0115 -0.27527,0.0468 -0.3789,0.15039 -0.26107,0.26107 -0.37929,0.70966 -0.26563,1.00586 0.29756,0.77543 7.49821,6.02578 8.10547,5.91015 0.28219,-0.0537 0.55298,-0.38564 0.60352,-0.73633 0.0703,-0.48784 -0.85409,-1.34407 -3.93946,-3.64453 -2.66252,-1.98516 -3.63209,-2.65097 -4.125,-2.68554 z"
       style="display:inline"
       id="path18" />
    <path
       d="m 195.21094,151.50195 c -0.47022,-0.0681 -0.65498,0.0456 -0.89844,0.28907 -0.746,0.74599 -0.28207,1.10645 3.22266,2.50195 3.45102,1.37412 3.92894,1.4384 4.3789,0.59765 0.44403,-0.82967 -0.21932,-1.2484 -4.0957,-2.59179 -1.38193,-0.47892 -2.1372,-0.72876 -2.60742,-0.79688 z"
       style="display:inline"
       id="path17" />
    <path
       d="m 174.11523,134.64453 c -2.78164,0.0402 -3.15272,0.42678 -2.63281,2.75 0.68312,3.05247 2.78479,5.49895 5.40235,6.28711 0.48153,0.14499 1.70284,0.27592 2.71484,0.29102 L 181.43945,144 v -2.08984 c 0,-2.43109 -0.58537,-4.05032 -1.99218,-5.50391 -1.26832,-1.31047 -2.74785,-1.79912 -5.33204,-1.76172 z"
       style="display:inline;opacity:0"
       id="path16" />
    <path
       d="m 177.03516,103.30078 c -2.88028,0.25399 -9.31316,2.29425 -14.67774,4.84961 -13.43185,6.3981 -21.3126,15.63484 -24.29883,28.47656 -0.26423,1.1363 -0.68811,3.9478 -0.94336,6.25 -0.94972,8.56603 -1.69525,9.57246 -11.03515,14.88477 -8.39499,4.77486 -13.28197,8.46678 -18.73633,14.15625 -9.100539,9.49281 -15.167552,21.44576 -16.939453,33.3789 -0.592845,3.9926 -0.666416,12.20225 -0.144531,16.01368 1.583194,11.56239 5.935472,20.861 13.093754,27.96875 6.23309,6.18909 13.73743,10.24493 22.6582,12.24414 2.70124,0.60537 4.07277,0.69599 10.46875,0.69531 7.9617,-8.6e-4 8.27622,-0.039 20.63867,-2.53906 11.0055,-2.22565 13.57514,-2.53213 21.44141,-2.54688 9.54963,-0.0179 13.21426,0.59607 26.42382,4.41992 6.10645,1.76768 10.9883,2.83612 15.4961,3.39258 3.15338,0.38927 10.04823,0.16584 13.33398,-0.43164 9.71672,-1.76687 18.01312,-6.97478 24.20703,-15.19726 3.66516,-4.86555 6.03744,-10.22281 7.45508,-16.83594 0.57669,-2.6902 0.80707,-11.33009 0.34766,-13.04102 -0.3607,-1.34333 -1.0852,-1.05572 -2.01953,0.80078 -4.10598,8.15863 -10.5215,12.89304 -19.64453,14.49805 -3.6615,0.64416 -11.71209,0.65186 -16.10938,0.0137 -1.90787,-0.27691 -7.38003,-1.30362 -12.16016,-2.27929 -11.63417,-2.37463 -16.95868,-3.03294 -24.46289,-3.0293 -8.76304,0.004 -15.84582,0.94669 -28.94726,3.85547 -16.09488,3.57338 -24.34659,3.7262 -32.6875,0.60547 -2.25912,-0.84524 -4.35352,-2.62122 -4.35352,-3.69336 0,-1.4824 0.32506,-1.58563 22.88086,-7.20703 10.75375,-2.68007 14.20654,-3.65769 14.61524,-4.14063 0.51055,-0.60329 2.23565,-5.51343 3.25586,-9.26367 1.36608,-5.02167 2.30209,-14.18801 1.95898,-19.19922 -0.87036,-12.71188 -4.02617,-21.53577 -12.75586,-35.67969 -2.17256,-3.51999 -3.88842,-6.46804 -3.81445,-6.55078 0.074,-0.0827 1.28464,1.09919 2.6914,2.62695 7.02733,7.6318 16.40296,11.82944 23.48829,10.51758 4.39973,-0.81462 8.75913,-4.12684 11.03125,-8.38281 1.56169,-2.92526 1.54473,-4.65744 -0.0703,-6.9668 -1.17078,-1.67411 -1.20004,-1.78775 -1.21093,-4.64062 -0.0268,-7.03082 -1.93692,-12.08083 -6.41797,-16.97852 -2.41033,-2.63443 -5.31103,-4.98618 -6.14844,-4.98437 -0.38686,8.3e-4 -1.84596,0.86475 -3.24219,1.91992 -1.39623,1.05516 -2.65701,1.91797 -2.80078,1.91797 -0.52658,0 -0.24064,-2.82612 0.50391,-4.98242 1.74821,-5.0631 4.05518,-8.90936 7.5332,-12.5625 0.8928,-0.93775 1.62305,-1.82143 1.62305,-1.96485 0,-0.3594 -0.5653,-0.47333 -1.52539,-0.38867 z m -2.91993,31.34375 c 2.58419,-0.0374 4.06372,0.45125 5.33204,1.76172 1.40681,1.45359 1.99218,3.07282 1.99218,5.50391 V 144 l -1.83984,-0.0273 c -1.012,-0.0151 -2.23331,-0.14603 -2.71484,-0.29102 -2.61756,-0.78816 -4.71923,-3.23464 -5.40235,-6.28711 -0.51991,-2.32322 -0.14883,-2.70977 2.63281,-2.75 z"
       style="display:inline"
       id="path15" />
    <path
       d="m 177.03516,103.30078 c 0.96009,-0.0847 1.52539,0.0293 1.52539,0.38867 0,0.14342 -0.73025,1.0271 -1.62305,1.96485 -3.47802,3.65314 -5.78499,7.4994 -7.5332,12.5625 -0.74455,2.1563 -1.03049,4.98242 -0.50391,4.98242 0.14377,0 1.40455,-0.86281 2.80078,-1.91797 1.39623,-1.05517 2.85533,-1.91909 3.24219,-1.91992 0.83741,-0.002 3.73811,2.34994 6.14844,4.98437 4.48105,4.89769 6.39117,9.9477 6.41797,16.97852 0.0109,2.85287 0.0401,2.96651 1.21093,4.64062 1.61505,2.30936 1.63201,4.04154 0.0703,6.9668 -2.27212,4.25597 -6.63152,7.56819 -11.03125,8.38281 -7.08533,1.31186 -16.46096,-2.88578 -23.48829,-10.51758 -1.40676,-1.52776 -2.6174,-2.70965 -2.6914,-2.62695 -0.074,0.0827 1.64189,3.03079 3.81445,6.55078 8.72969,14.14392 11.8855,22.96781 12.75586,35.67969 0.34311,5.01121 -0.5929,14.17755 -1.95898,19.19922 -1.02021,3.75024 -2.74531,8.66038 -3.25586,9.26367 -0.4087,0.48294 -3.86149,1.46056 -14.61524,4.14063 -22.5558,5.6214 -22.88086,5.72463 -22.88086,7.20703 0,1.07214 2.0944,2.84812 4.35352,3.69336 8.34091,3.12073 16.59262,2.96791 32.6875,-0.60547 13.10144,-2.90878 20.18422,-3.85147 28.94726,-3.85547 7.50421,-0.004 12.82872,0.65467 24.46289,3.0293 4.78013,0.97567 10.25229,2.00238 12.16016,2.27929 4.39729,0.63819 12.44788,0.63049 16.10938,-0.0137 9.12303,-1.60501 15.53855,-6.33942 19.64453,-14.49805 0.93433,-1.8565 1.65883,-2.14411 2.01953,-0.80078 0.45941,1.71093 0.22903,10.35082 -0.34766,13.04102 -1.41764,6.61313 -3.78992,11.97039 -7.45508,16.83594 -6.19391,8.22248 -14.49031,13.43039 -24.20703,15.19726 -3.28575,0.59748 -10.1806,0.82091 -13.33398,0.43164 -4.5078,-0.55646 -9.38965,-1.6249 -15.4961,-3.39258 -13.20956,-3.82385 -16.87419,-4.43782 -26.42382,-4.41992 -7.86627,0.0147 -10.43591,0.32123 -21.44141,2.54688 -12.36245,2.50007 -12.67697,2.5382 -20.63867,2.53906 -6.39598,6.8e-4 -7.76751,-0.0899 -10.46875,-0.69531 -8.92077,-1.99921 -16.42511,-6.05505 -22.6582,-12.24414 -7.158282,-7.10775 -11.51056,-16.40636 -13.093754,-27.96875 -0.521885,-3.81143 -0.448314,-12.02108 0.144531,-16.01368 1.771901,-11.93314 7.838914,-23.88609 16.939453,-33.3789 5.45436,-5.68947 10.34134,-9.38139 18.73633,-14.15625 9.3399,-5.31231 10.08543,-6.31874 11.03515,-14.88477 0.25525,-2.3022 0.67913,-5.1137 0.94336,-6.25 2.98623,-12.84172 10.86698,-22.07846 24.29883,-28.47656 5.36458,-2.55536 11.79746,-4.59562 14.67774,-4.84961 z m 18.17578,48.20117 c 0.47022,0.0681 1.22549,0.31796 2.60742,0.79688 3.87638,1.34339 4.53973,1.76212 4.0957,2.59179 -0.44996,0.84075 -0.92788,0.77647 -4.3789,-0.59765 -3.50473,-1.3955 -3.96866,-1.75596 -3.22266,-2.50195 0.24346,-0.24346 0.42822,-0.35718 0.89844,-0.28907 z m -2.06446,3.28321 c 0.49291,0.0346 1.46248,0.70038 4.125,2.68554 3.08537,2.30046 4.00976,3.15669 3.93946,3.64453 -0.0505,0.35069 -0.32133,0.68263 -0.60352,0.73633 -0.60726,0.11563 -7.80791,-5.13472 -8.10547,-5.91015 -0.11366,-0.2962 0.005,-0.74479 0.26563,-1.00586 0.10363,-0.10364 0.2146,-0.16192 0.3789,-0.15039 z m -2.26562,3.06445 c 0.46777,-0.0509 1.49498,0.97296 3.81836,3.80078 1.74835,2.12795 3.18752,4.17445 3.19922,4.54883 0.0142,0.45702 -0.19995,0.71274 -0.65235,0.77734 -0.52245,0.0746 -1.38496,-0.77262 -3.83984,-3.76953 -3.20078,-3.9075 -3.81714,-5.21675 -2.52539,-5.35742 z"
       style="display:none"
       id="path14" />
    <path
       d="m 162.28711,58.880859 c -10.11585,0 -19.28032,1.33169 -28.36719,4.123047 -19.47324,5.981897 -35.456327,16.267137 -48.291014,31.076172 -11.390719,13.142942 -19.54657,29.383952 -22.925781,45.654292 -2.093108,10.07797 -2.788503,22.69692 -1.767578,32.10547 1.122595,10.34549 3.429769,19.38807 7.410156,29.05664 1.953561,4.7453 6.936368,14.18864 7.296875,13.82813 0.17749,-0.17749 0.431322,-2.28627 0.564453,-4.6875 0.52316,-9.43604 3.251667,-19.2421 7.84375,-28.18555 1.62655,-3.16783 4.60429,-7.89992 7.681641,-12.20898 l 1.228515,-1.71875 -0.08594,-3.88281 c -0.16233,-7.42155 0.796573,-16.34079 2.451172,-22.79883 4.904501,-19.1427 18.532911,-36.20436 35.890631,-44.931643 26.89596,-13.523023 59.34789,-8.535806 80.14843,12.316403 12.21052,12.24085 19.7021,27.7131 21.31446,44.01367 0.44903,4.53962 0.18884,13.64885 -0.52149,18.24024 -2.63369,17.02344 -10.22685,30.88982 -23.62695,43.14844 -1.23488,1.12969 -2.11771,2.18443 -2.02734,2.41992 0.10232,0.26665 3.77942,1.13225 10.1875,2.39844 12.95028,2.55887 16.69333,2.9443 22.02929,2.26953 4.44358,-0.56192 6.78514,-1.27612 7.84961,-2.39453 2.73494,-2.87353 8.15856,-12.29171 11.0586,-19.20313 7.15401,-17.0496 9.42347,-39.21086 5.89453,-57.54101 -2.9889,-15.52501 -10.65252,-32.12608 -20.63672,-44.699223 C 239.57447,93.108173 231.56789,85.071313 227.51953,81.853516 208.15006,66.457848 186.63198,58.880859 162.28711,58.880859 Z"
       style="display:inline"
       id="path13" />
    <path
       d="M 0,0 V 163.83984 327.67969 H 163.83984 327.67969 V 163.83984 0 H 163.83984 Z m 162.28711,58.880859 c 24.34487,0 45.86295,7.576989 65.23242,22.972657 4.04836,3.217797 12.05494,11.254657 15.36719,15.425781 9.9842,12.573143 17.64782,29.174213 20.63672,44.699223 3.52894,18.33015 1.25948,40.49141 -5.89453,57.54101 -2.90004,6.91142 -8.32366,16.3296 -11.0586,19.20313 -1.06447,1.11841 -3.40603,1.83261 -7.84961,2.39453 -5.33596,0.67477 -9.07901,0.28934 -22.02929,-2.26953 -6.40808,-1.26619 -10.08518,-2.13179 -10.1875,-2.39844 -0.0904,-0.23549 0.79246,-1.29023 2.02734,-2.41992 13.4001,-12.25862 20.99326,-26.125 23.62695,-43.14844 0.71033,-4.59139 0.97052,-13.70062 0.52149,-18.24024 -1.61236,-16.30057 -9.10394,-31.77282 -21.31446,-44.01367 C 190.56469,87.774741 158.11276,82.787524 131.2168,96.310547 113.85908,105.03783 100.23067,122.09949 95.326172,141.24219 93.671573,147.70023 92.71267,156.61947 92.875,164.04102 l 0.08594,3.88281 -1.228515,1.71875 c -3.077351,4.30906 -6.055091,9.04115 -7.681641,12.20898 -4.592083,8.94345 -7.32059,18.74951 -7.84375,28.18555 -0.133131,2.40123 -0.386963,4.51001 -0.564453,4.6875 -0.360507,0.36051 -5.343314,-9.08283 -7.296875,-13.82813 -3.980387,-9.66857 -6.287561,-18.71115 -7.410156,-29.05664 -1.020925,-9.40855 -0.32553,-22.0275 1.767578,-32.10547 3.379211,-16.27034 11.535062,-32.51135 22.925781,-45.654292 12.834687,-14.809035 28.817771,-25.094275 48.291011,-31.076172 9.08687,-2.791357 18.25134,-4.123047 28.36719,-4.123047 z"
       style="display:none"
       id="path12" />
  </g>
</svg>
