<?xml version="1.0" encoding="UTF-8" standalone="no"?>
<!-- Created with Inkscape (http://www.inkscape.org/) -->

<svg
   version="1.1"
   id="svg1"
   width="327.67999"
   height="327.67999"
   viewBox="0 0 327.67999 327.67999"
   sodipodi:docname="attempt.svg"
   inkscape:version="1.3.2 (091e20ef0f, 2023-11-25)"
   xmlns:inkscape="http://www.inkscape.org/namespaces/inkscape"
   xmlns:sodipodi="http://sodipodi.sourceforge.net/DTD/sodipodi-0.dtd"
   xmlns="http://www.w3.org/2000/svg"
   xmlns:svg="http://www.w3.org/2000/svg">
  <defs
     id="defs1">
    <linearGradient
       id="swatch4"
       inkscape:swatch="solid">
      <stop
         style="stop-color:#000000;stop-opacity:1;"
         offset="0"
         id="stop4" />
    </linearGradient>
  </defs>
  <sodipodi:namedview
     id="namedview1"
     pagecolor="#ffffff"
     bordercolor="#000000"
     borderopacity="0.25"
     inkscape:showpageshadow="2"
     inkscape:pageopacity="0.0"
     inkscape:pagecheckerboard="0"
     inkscape:deskcolor="#d1d1d1"
     inkscape:zoom="5.8837892"
     inkscape:cx="163.58506"
     inkscape:cy="146.33427"
     inkscape:window-width="2618"
     inkscape:window-height="1808"
     inkscape:window-x="0"
     inkscape:window-y="0"
     inkscape:window-maximized="0"
     inkscape:current-layer="g1" />
  <g
     inkscape:groupmode="layer"
     inkscape:label="Image"
     id="g1">
    <path
       style="fill:#000000;fill-opacity:1;fill-rule:nonzero"
       d="M 0,163.84 V 0 H 163.84 327.67999 V 163.84 327.67999 H 163.84 0 Z m 233.81509,100.67418 c 9.71673,-1.76687 18.01231,-6.97518 24.20623,-15.19767 3.66516,-4.86555 6.03764,-10.22338 7.45528,-16.83652 0.57669,-2.6902 0.8069,-11.32906 0.34749,-13.03999 -0.3607,-1.34333 -1.08448,-1.05651 -2.01881,0.8 -4.10598,8.15863 -10.52225,12.89414 -19.64529,14.49915 -3.6615,0.64416 -11.71156,0.65009 -16.10885,0.0119 -1.90787,-0.27691 -7.37987,-1.30175 -12.16,-2.27742 -11.63419,-2.37463 -16.95917,-3.03433 -24.46338,-3.03069 -8.76305,0.004 -15.84536,0.94783 -28.94681,3.85661 -16.09489,3.57339 -24.34662,3.72624 -32.68754,0.6055 -2.25912,-0.84524 -4.35341,-2.62273 -4.35341,-3.69487 0,-1.4824 0.32417,-1.5845 22.88,-7.20591 10.75376,-2.68007 14.20641,-3.65842 14.61511,-4.14136 0.51055,-0.60329 2.23675,-5.51263 3.25696,-9.26287 1.36609,-5.02167 2.30079,-14.18879 1.95768,-19.2 -0.87036,-12.71189 -4.02471,-21.53607 -12.75441,-35.68 -2.17256,-3.52 -3.8896,-6.4677 -3.81563,-6.55044 0.074,-0.0827 1.28547,1.09957 2.69224,2.62734 7.02733,7.6318 16.40272,11.83029 23.48805,10.51843 4.39974,-0.81462 8.75885,-4.12751 11.03097,-8.38348 1.5617,-2.92526 1.54405,-4.6584 -0.071,-6.96776 -1.17078,-1.67412 -1.20028,-1.78713 -1.21117,-4.64 -0.0268,-7.03083 -1.93506,-12.08022 -6.41612,-16.97791 -2.41033,-2.63444 -5.31192,-4.98647 -6.14933,-4.98466 -0.38686,8.3e-4 -1.84576,0.86483 -3.24199,1.92 -1.39623,1.05516 -2.65623,1.91848 -2.8,1.91848 -0.52658,0 -0.24077,-2.82764 0.50378,-4.98395 1.74821,-5.0631 4.05354,-8.9079 7.53156,-12.56105 0.8928,-0.93775 1.62327,-1.82234 1.62327,-1.96576 0,-1.43761 -9.04888,1.05401 -16.20166,4.46116 -13.43187,6.39811 -21.31309,15.63386 -24.29932,28.4756 -0.26423,1.1363 -0.68927,3.94963 -0.94452,6.25184 -0.94973,8.56604 -1.69459,9.57069 -11.0345,14.883 -8.395,4.77487 -13.28281,8.46802 -18.73718,14.15749 -9.100548,9.49282 -15.166194,21.44619 -16.938097,33.37935 -0.592845,3.9926 -0.667491,12.20204 -0.145606,16.01347 1.583196,11.5624 5.936898,20.86109 13.095183,27.96884 6.2331,6.1891 13.73654,10.24355 22.65732,12.24276 2.70124,0.60537 4.07239,0.6965 10.46838,0.69582 7.96171,-8.6e-4 8.27754,-0.0397 20.64,-2.53978 11.00551,-2.22565 13.57373,-2.53054 21.44,-2.54529 9.54964,-0.0179 13.21409,0.59488 26.42367,4.41874 6.10645,1.76768 10.98853,2.83667 15.49633,3.39313 3.15338,0.38927 10.04933,0.16629 13.33509,-0.43119 z m -56.9306,-120.83281 c -2.61756,-0.78816 -4.71941,-3.23386 -5.40253,-6.28633 -0.51991,-2.32322 -0.14895,-2.71087 2.6327,-2.7511 2.58419,-0.0374 4.06387,0.45161 5.33219,1.76208 1.40682,1.45359 1.99315,3.07261 1.99315,5.5037 V 144 l -1.84,-0.0275 c -1.012,-0.0151 -2.23398,-0.14613 -2.71551,-0.29112 z m 61.8355,77.43537 c 4.44358,-0.56192 6.78562,-1.2764 7.85009,-2.39481 2.73494,-2.87353 8.15799,-12.2905 11.05803,-19.20193 7.15402,-17.04962 9.42482,-39.21213 5.89587,-57.5423 -2.9889,-15.52502 -10.65301,-32.12455 -20.63722,-44.697702 C 239.57451,93.10887 231.56835,85.071901 227.51999,81.8541 208.1505,66.458417 186.6324,58.879999 162.28751,58.879999 c -10.11586,0 -19.28152,1.332343 -28.3684,4.123703 -19.47326,5.981903 -35.456101,16.267246 -48.290801,31.076296 -11.390731,13.142952 -19.546476,29.384552 -22.92569,45.654912 -2.09311,10.07798 -2.787404,22.69653 -1.766478,32.10509 1.122596,10.3455 3.428276,19.38846 7.408667,29.05704 1.953563,4.7453 6.937349,14.1888 7.297856,13.82829 0.17749,-0.17749 0.431634,-2.28736 0.564765,-4.68859 0.52316,-9.43605 3.252215,-19.24177 7.844303,-28.18523 1.626551,-3.16784 4.60397,-7.90047 7.681324,-12.20954 l 1.226942,-1.71802 -0.08491,-3.88198 c -0.16233,-7.42155 0.796665,-16.34116 2.451266,-22.79921 4.904505,-19.14272 18.532835,-36.20398 35.890565,-44.931272 26.89599,-13.523036 59.3473,-8.536471 80.14787,12.315762 12.21053,12.24086 19.70343,27.71216 21.31579,44.01275 0.44903,4.53962 0.18836,13.64861 -0.52197,18.24 -2.6337,17.02346 -10.22679,30.8905 -23.6269,43.14913 -1.23488,1.12969 -2.11852,2.18369 -2.02815,2.41918 0.10232,0.26665 3.7802,1.13259 10.18828,2.39878 12.9503,2.55888 16.69218,2.94442 22.02815,2.26965 z m -40.82118,-54.91745 c -0.0117,-0.37438 -1.45165,-2.42174 -3.2,-4.54969 -2.32338,-2.82782 -3.35104,-3.85023 -3.81881,-3.7993 -1.29175,0.14067 -0.67462,1.44934 2.52616,5.35685 2.45488,2.99691 3.31755,3.84365 3.84,3.76905 0.4524,-0.0646 0.66687,-0.31989 0.65265,-0.77691 z m 3.31308,-5.08345 c 0.0703,-0.48784 -0.85549,-1.34399 -3.94086,-3.64445 -3.55003,-2.64689 -4.08912,-2.95045 -4.50365,-2.53592 -0.26107,0.26107 -0.37955,0.70895 -0.26589,1.00515 0.29756,0.77543 7.49818,6.02616 8.10544,5.91053 0.28219,-0.0537 0.55442,-0.38462 0.60496,-0.73531 z m 0.70226,-6.22492 c 0.44403,-0.82968 -0.21887,-1.24937 -4.09525,-2.59276 -2.76387,-0.95784 -3.01936,-0.99485 -3.50628,-0.50793 -0.746,0.746 -0.28151,1.10656 3.22322,2.50206 3.45103,1.37412 3.92835,1.43938 4.37831,0.59863 z"
       id="path1" />
  </g>
</svg>
